<mxfile host="app.diagrams.net" agent="Mozilla/5.0 (X11; Linux x86_64; rv:133.0) Gecko/20100101 Firefox/133.0" version="26.0.1">
  <diagram name="Page-1" id="kzPl9Rhfbv-uAKztrY2d">
    <mxGraphModel dx="2211" dy="1914" grid="1" gridSize="10" guides="1" tooltips="1" connect="1" arrows="1" fold="1" page="1" pageScale="1" pageWidth="850" pageHeight="1100" math="0" shadow="0">
      <root>
        <mxCell id="0" />
        <mxCell id="1" parent="0" />
        <mxCell id="5T-c-a--f9NPzJF40fv3-4" style="edgeStyle=orthogonalEdgeStyle;rounded=0;orthogonalLoop=1;jettySize=auto;html=1;exitX=1;exitY=0.5;exitDx=0;exitDy=0;" parent="1" source="5T-c-a--f9NPzJF40fv3-1" target="5T-c-a--f9NPzJF40fv3-2" edge="1">
          <mxGeometry relative="1" as="geometry" />
        </mxCell>
        <mxCell id="5T-c-a--f9NPzJF40fv3-19" style="edgeStyle=orthogonalEdgeStyle;rounded=0;orthogonalLoop=1;jettySize=auto;html=1;exitX=0.75;exitY=0;exitDx=0;exitDy=0;entryX=0;entryY=0.5;entryDx=0;entryDy=0;" parent="1" source="5T-c-a--f9NPzJF40fv3-1" target="5T-c-a--f9NPzJF40fv3-18" edge="1">
          <mxGeometry relative="1" as="geometry" />
        </mxCell>
        <mxCell id="5T-c-a--f9NPzJF40fv3-1" value="Admin" style="rounded=0;whiteSpace=wrap;html=1;fontFamily=Times New Roman;" parent="1" vertex="1">
          <mxGeometry x="-140" y="340" width="120" height="60" as="geometry" />
        </mxCell>
        <mxCell id="5T-c-a--f9NPzJF40fv3-5" style="edgeStyle=orthogonalEdgeStyle;rounded=0;orthogonalLoop=1;jettySize=auto;html=1;entryX=0.045;entryY=0.593;entryDx=0;entryDy=0;entryPerimeter=0;" parent="1" source="5T-c-a--f9NPzJF40fv3-2" target="5T-c-a--f9NPzJF40fv3-3" edge="1">
          <mxGeometry relative="1" as="geometry">
            <mxPoint x="810" y="370" as="targetPoint" />
          </mxGeometry>
        </mxCell>
        <mxCell id="5T-c-a--f9NPzJF40fv3-2" value="View dashboard" style="rounded=0;whiteSpace=wrap;html=1;fontFamily=Times New Roman;" parent="1" vertex="1">
          <mxGeometry x="365" y="320" width="120" height="60" as="geometry" />
        </mxCell>
        <mxCell id="5T-c-a--f9NPzJF40fv3-3" value="Dashboard manage" style="shape=cylinder3;whiteSpace=wrap;html=1;boundedLbl=1;backgroundOutline=1;size=15;fontFamily=Times New Roman;" parent="1" vertex="1">
          <mxGeometry x="820" y="280" width="110" height="150" as="geometry" />
        </mxCell>
        <mxCell id="5T-c-a--f9NPzJF40fv3-9" style="edgeStyle=orthogonalEdgeStyle;rounded=0;orthogonalLoop=1;jettySize=auto;html=1;" parent="1" source="5T-c-a--f9NPzJF40fv3-6" edge="1">
          <mxGeometry relative="1" as="geometry">
            <mxPoint x="820" y="620" as="targetPoint" />
          </mxGeometry>
        </mxCell>
        <mxCell id="5T-c-a--f9NPzJF40fv3-6" value="View, add, edit, and delete user" style="rounded=0;whiteSpace=wrap;html=1;fontFamily=Times New Roman;" parent="1" vertex="1">
          <mxGeometry x="365" y="580" width="120" height="60" as="geometry" />
        </mxCell>
        <mxCell id="5T-c-a--f9NPzJF40fv3-7" value="" style="endArrow=classic;html=1;rounded=0;exitX=1;exitY=0.75;exitDx=0;exitDy=0;entryX=0.25;entryY=0;entryDx=0;entryDy=0;edgeStyle=orthogonalEdgeStyle;" parent="1" source="5T-c-a--f9NPzJF40fv3-1" target="5T-c-a--f9NPzJF40fv3-6" edge="1">
          <mxGeometry width="50" height="50" relative="1" as="geometry">
            <mxPoint x="400" y="450" as="sourcePoint" />
            <mxPoint x="450" y="400" as="targetPoint" />
            <Array as="points">
              <mxPoint x="-20" y="400" />
              <mxPoint x="395" y="400" />
            </Array>
          </mxGeometry>
        </mxCell>
        <mxCell id="5T-c-a--f9NPzJF40fv3-8" value="User manage" style="shape=cylinder3;whiteSpace=wrap;html=1;boundedLbl=1;backgroundOutline=1;size=15;fontFamily=Times New Roman;" parent="1" vertex="1">
          <mxGeometry x="820" y="500" width="110" height="150" as="geometry" />
        </mxCell>
        <mxCell id="5T-c-a--f9NPzJF40fv3-10" value="View, add, edit, and delete product" style="rounded=0;whiteSpace=wrap;html=1;fontFamily=Times New Roman;" parent="1" vertex="1">
          <mxGeometry x="360" y="780" width="120" height="60" as="geometry" />
        </mxCell>
        <mxCell id="5T-c-a--f9NPzJF40fv3-11" value="" style="endArrow=classic;html=1;rounded=0;exitX=0.75;exitY=1;exitDx=0;exitDy=0;entryX=0;entryY=0.5;entryDx=0;entryDy=0;edgeStyle=orthogonalEdgeStyle;" parent="1" source="5T-c-a--f9NPzJF40fv3-1" target="5T-c-a--f9NPzJF40fv3-10" edge="1">
          <mxGeometry width="50" height="50" relative="1" as="geometry">
            <mxPoint x="400" y="570" as="sourcePoint" />
            <mxPoint x="450" y="520" as="targetPoint" />
          </mxGeometry>
        </mxCell>
        <mxCell id="5T-c-a--f9NPzJF40fv3-12" value="Product manage" style="shape=cylinder3;whiteSpace=wrap;html=1;boundedLbl=1;backgroundOutline=1;size=15;fontFamily=Times New Roman;" parent="1" vertex="1">
          <mxGeometry x="820" y="690" width="110" height="150" as="geometry" />
        </mxCell>
        <mxCell id="5T-c-a--f9NPzJF40fv3-13" style="edgeStyle=orthogonalEdgeStyle;rounded=0;orthogonalLoop=1;jettySize=auto;html=1;exitX=1;exitY=0.5;exitDx=0;exitDy=0;entryX=0;entryY=0.82;entryDx=0;entryDy=0;entryPerimeter=0;" parent="1" source="5T-c-a--f9NPzJF40fv3-10" target="5T-c-a--f9NPzJF40fv3-12" edge="1">
          <mxGeometry relative="1" as="geometry" />
        </mxCell>
        <mxCell id="5T-c-a--f9NPzJF40fv3-14" value="View customers" style="rounded=0;whiteSpace=wrap;html=1;fontFamily=Times New Roman;" parent="1" vertex="1">
          <mxGeometry x="360" y="980" width="120" height="60" as="geometry" />
        </mxCell>
        <mxCell id="5T-c-a--f9NPzJF40fv3-15" value="" style="endArrow=classic;html=1;rounded=0;exitX=0.5;exitY=1;exitDx=0;exitDy=0;entryX=0;entryY=0.5;entryDx=0;entryDy=0;edgeStyle=orthogonalEdgeStyle;" parent="1" source="5T-c-a--f9NPzJF40fv3-1" target="5T-c-a--f9NPzJF40fv3-14" edge="1">
          <mxGeometry width="50" height="50" relative="1" as="geometry">
            <mxPoint x="-100" y="420" as="sourcePoint" />
            <mxPoint x="240" y="630" as="targetPoint" />
          </mxGeometry>
        </mxCell>
        <mxCell id="5T-c-a--f9NPzJF40fv3-16" value="Product manage" style="shape=cylinder3;whiteSpace=wrap;html=1;boundedLbl=1;backgroundOutline=1;size=15;fontFamily=Times New Roman;" parent="1" vertex="1">
          <mxGeometry x="820" y="890" width="110" height="150" as="geometry" />
        </mxCell>
        <mxCell id="5T-c-a--f9NPzJF40fv3-17" style="edgeStyle=orthogonalEdgeStyle;rounded=0;orthogonalLoop=1;jettySize=auto;html=1;entryX=0.009;entryY=0.787;entryDx=0;entryDy=0;entryPerimeter=0;" parent="1" source="5T-c-a--f9NPzJF40fv3-14" target="5T-c-a--f9NPzJF40fv3-16" edge="1">
          <mxGeometry relative="1" as="geometry" />
        </mxCell>
        <mxCell id="5T-c-a--f9NPzJF40fv3-18" value="View, add, edit, and delete product" style="rounded=0;whiteSpace=wrap;html=1;fontFamily=Times New Roman;" parent="1" vertex="1">
          <mxGeometry x="365" y="60" width="115" height="60" as="geometry" />
        </mxCell>
        <mxCell id="5T-c-a--f9NPzJF40fv3-20" value="Category manage" style="shape=cylinder3;whiteSpace=wrap;html=1;boundedLbl=1;backgroundOutline=1;size=15;fontFamily=Times New Roman;" parent="1" vertex="1">
          <mxGeometry x="890" y="-30" width="110" height="150" as="geometry" />
        </mxCell>
      </root>
    </mxGraphModel>
  </diagram>
</mxfile>
